<svg xmlns="http://www.w3.org/2000/svg" viewBox="0 0 26 26" >
  <g>
    <path d="M 13 1 C 6.382813 1 1 6.382813 1 13 C 1 19.617188 6.382813 25 13 25 C 19.617188 25 25 19.617188 25 13 C 25 6.382813 19.617188 1 13 1 Z M 13 3 C 18.535156 3 23 7.464844 23 13 C 23 18.535156 18.535156 23 13 23 C 7.464844 23 3 18.535156 3 13 C 3 7.464844 7.464844 3 13 3 Z M 13 5 C 8.582031 5 5 8.582031 5 13 C 5 17.417969 8.582031 21 13 21 C 17.417969 21 21 17.417969 21 13 C 21 8.582031 17.417969 5 13 5 Z "/>
  </g>
</svg>
